<?xml version="1.0" standalone="no"?>
<!DOCTYPE svg PUBLIC "-//W3C//DTD SVG 20010904//EN"
 "http://www.w3.org/TR/2001/REC-SVG-20010904/DTD/svg10.dtd">
<svg version="1.0" xmlns="http://www.w3.org/2000/svg"
 width="512.000000pt" height="512.000000pt" viewBox="0 0 512.000000 512.000000"
 preserveAspectRatio="xMidYMid meet">
<metadata>
Created by potrace 1.14, written by Peter Selinger 2001-2017
</metadata>
<g transform="translate(0.000000,512.000000) scale(0.100000,-0.100000)"
fill="#000000" stroke="none">
<path d="M442 4890 c-167 -44 -308 -159 -380 -311 -22 -46 -45 -106 -51 -134
-7 -35 -10 -610 -10 -1885 -1 -2006 -5 -1872 58 -2007 75 -160 218 -276 395
-319 66 -16 202 -17 2111 -17 1882 0 2045 1 2105 17 217 56 371 210 438 437 4
13 8 859 9 1879 2 2052 7 1897 -64 2040 -46 92 -151 201 -238 247 -33 17 -94
41 -135 52 -74 21 -81 21 -2120 20 -1981 0 -2047 -1 -2118 -19z m730 -1592 c3
-11 2 -603 -1 -704 l-1 -30 -425 0 -425 0 0 373 0 373 424 0 c330 0 425 -3
428 -12z m1228 -361 l0 -373 -453 0 -454 0 0 373 0 373 454 0 453 0 0 -373z
m1227 0 l0 -373 -451 0 -451 1 -3 373 -2 372 453 0 454 0 0 -373z m1173 0 l0
-373 -420 0 c-307 1 -423 4 -428 13 -5 8 -8 682 -3 726 1 4 192 7 426 7 l425
0 0 -373z m-3635 -696 c11 -1 13 -726 2 -737 -7 -8 -799 -12 -829 -6 -17 4
-18 30 -18 372 0 237 4 370 10 372 9 3 807 2 835 -1z m1233 -369 c1 -205 -1
-372 -5 -373 -33 -4 -887 -3 -892 1 -10 7 -10 733 0 740 4 3 207 5 451 4 l443
0 3 -372z m1227 -2 l0 -374 -440 -1 c-242 0 -446 1 -452 3 -10 3 -13 86 -13
371 0 202 2 370 4 372 2 2 206 4 453 4 l448 -1 0 -374z m1175 3 c0 -205 -3
-373 -7 -374 -5 0 -196 -2 -426 -2 -272 -1 -417 1 -418 8 -5 47 -3 710 2 723
6 16 41 17 428 17 l421 0 0 -372z m-3629 -712 c5 -87 3 -608 -3 -616 -4 -6
-121 -10 -320 -9 -300 1 -315 2 -363 23 -60 27 -98 61 -133 121 -27 44 -27 48
-30 258 -2 117 -2 219 1 226 4 10 93 13 426 13 376 -1 421 -2 422 -16z m1229
-302 c0 -245 -3 -318 -12 -321 -7 -2 -211 -3 -453 -3 l-440 1 -1 315 c0 173 3
317 8 320 5 3 209 6 453 6 l445 0 0 -318z m1225 -3 l0 -320 -440 -1 c-242 0
-446 1 -452 3 -10 3 -13 76 -13 321 l0 318 453 -1 452 -1 0 -319z m1175 112
c-1 -157 -5 -220 -17 -253 -21 -63 -82 -128 -145 -155 -51 -22 -63 -23 -372
-23 l-320 -1 0 295 c-1 161 1 306 2 320 l4 25 424 1 425 0 -1 -209z"/>
</g>
</svg>
